<?xml version="1.0" encoding="UTF-8"?>
<svg width="25px" height="24px" viewBox="0 0 25 24" version="1.1" xmlns="http://www.w3.org/2000/svg" xmlns:xlink="http://www.w3.org/1999/xlink">
    <!-- Generator: Sketch 48.2 (47327) - http://www.bohemiancoding.com/sketch -->
    <title>Page 1</title>
    <desc>Created with Sketch.</desc>
    <defs></defs>
    <g id="03" stroke="none" stroke-width="1" fill="none" fill-rule="evenodd" transform="translate(-315.000000, -622.000000)" stroke-linecap="round" stroke-linejoin="round">
        <g id="Tab-bar" transform="translate(0.000000, 614.000000)" stroke="#1C4C5F" stroke-width="1.008">
            <g id="Page-1" transform="translate(315.000000, 8.000000)">
                <path d="M19.5699529,0.501818182 L19.7951294,0.501818182 C20.5638353,0.501818182 21.1920706,1.12212121 21.1920706,1.88112121 L21.1920706,19.8127576 C21.1920706,20.5710606 20.5638353,21.1913636 19.7951294,21.1913636 L19.5699529,21.1913636 C18.7920706,21.1913636 13.9758353,14.1617273 8.82007059,14.1617273 L2.40077647,14.1617273 C1.36030588,14.1617273 0.508305882,13.3204848 0.508305882,12.2924545 L0.508305882,9.40072727 C0.508305882,8.37269697 1.3596,7.53145455 2.40077647,7.53145455 L8.82007059,7.53145455 C13.9765412,7.53145455 18.7920706,0.501818182 19.5699529,0.501818182 Z" id="Stroke-1"></path>
                <path d="M21.1706118,7.49228485 C22.6430824,7.91464848 23.7188471,9.25701212 23.7188471,10.8468 C23.7188471,12.4365879 22.6430824,13.7782545 21.1706118,14.2006182" id="Stroke-3"></path>
                <path d="M8.94169412,7.53180303 L8.94169412,14.1613788" id="Stroke-5"></path>
                <path d="M7.40724706,14.1615182 C7.66771765,15.6279424 7.28654118,17.1577909 8.18936471,18.5607909 L9.7176,20.9360636 C10.1016,21.5333667 9.48112941,22.5711545 8.78936471,22.5711545 L6.49595294,22.5711545 C5.80348235,22.5711545 5.06654118,22.0149727 4.90136471,21.3249727 L3.18254118,14.1615182 L7.40724706,14.1615182 Z" id="Stroke-7"></path>
            </g>
        </g>
    </g>
</svg>